<svg width="16" height="16" viewBox="0 0 16 16" fill="none" xmlns="http://www.w3.org/2000/svg">
<path d="M12.7939 4.10197L10.6925 2.00055C10.3014 1.60738 9.83624 1.29568 9.3239 1.08349C8.81155 0.871311 8.26221 0.762861 7.70767 0.764421H4.98517C4.18585 0.765059 3.41945 1.08283 2.85419 1.64797C2.28893 2.21312 1.97101 2.97946 1.97021 3.77877V12.2206C1.97021 13.8831 3.32272 15.2356 4.98517 15.2356H11.0151C12.6775 15.2356 14.03 13.8831 14.03 12.2206V7.08617C14.03 5.95858 13.5911 4.89973 12.7939 4.10197ZM11.9413 4.9546C12.133 5.14635 12.2952 5.35921 12.4267 5.58774H9.80909C9.47685 5.58774 9.2061 5.317 9.2061 4.98475V2.36717C9.43464 2.49862 9.6481 2.66083 9.83924 2.85258L11.9407 4.954L11.9413 4.9546ZM12.824 12.2206C12.824 13.218 12.0124 14.0296 11.0151 14.0296H4.98517C3.98782 14.0296 3.1762 13.218 3.1762 12.2206V3.77877C3.1762 2.78142 3.98782 1.9698 4.98517 1.9698H7.70767C7.80596 1.9698 7.90364 1.97462 8.00012 1.98367V4.98475C8.00012 5.9821 8.81175 6.79372 9.80909 6.79372H12.8102C12.8192 6.8902 12.824 6.98789 12.824 7.08617V12.2206ZM10.2354 9.49573C10.3485 9.60879 10.412 9.76214 10.412 9.92204C10.412 10.0819 10.3485 10.2353 10.2354 10.3484C10.1223 10.4614 9.96899 10.5249 9.80909 10.5249C9.6492 10.5249 9.49585 10.4614 9.38278 10.3484L8.60311 9.56869V12.2206C8.60311 12.3806 8.53958 12.5339 8.4265 12.647C8.31342 12.7601 8.16005 12.8236 8.00012 12.8236C7.8402 12.8236 7.68683 12.7601 7.57374 12.647C7.46066 12.5339 7.39713 12.3806 7.39713 12.2206V9.56869L6.61746 10.3484C6.5044 10.4614 6.35105 10.5249 6.19115 10.5249C6.03125 10.5249 5.8779 10.4614 5.76484 10.3484C5.65177 10.2353 5.58825 10.0819 5.58825 9.92204C5.58825 9.76214 5.65177 9.60879 5.76484 9.49573L6.73806 8.5225C7.0732 8.18834 7.52716 8.00069 8.00042 8.00069C8.47369 8.00069 8.92765 8.18834 9.26278 8.5225L10.236 9.49573H10.2354Z" fill="#0E4678"/>
</svg>
