<svg width="16" height="16" viewBox="0 0 16 16" fill="none" xmlns="http://www.w3.org/2000/svg">
<path d="M8.00727 4.32994C10.5474 4.32994 12.8167 5.74709 13.9294 7.99273C12.824 10.2384 10.5621 11.6555 8.00727 11.6555C5.45249 11.6555 3.19784 10.2384 2.09247 7.99273C3.19784 5.74709 5.46713 4.32994 8.00727 4.32994ZM8.00727 3C4.64726 3 1.78502 5.07122 0.621094 8C1.78502 10.9215 4.64726 13 7.99995 13C11.3526 13 14.2222 10.9288 15.3788 8C14.2149 5.07849 11.3526 3 7.99995 3H8.00727Z" fill="#0E4678"/>
<path d="M8.01206 6.21788C8.94173 6.21788 9.6884 6.96643 9.6884 7.88213C9.6884 8.79782 8.93441 9.54637 8.01206 9.54637C7.0897 9.54637 6.33571 8.79782 6.33571 7.88213C6.33571 6.96643 7.0897 6.21788 8.01206 6.21788ZM8.01206 4.88794C6.35035 4.88794 4.99609 6.23242 4.99609 7.88213C4.99609 9.53184 6.35035 10.8763 8.01206 10.8763C9.67376 10.8763 11.028 9.53184 11.028 7.88213C11.028 6.23242 9.67376 4.88794 8.01206 4.88794Z" fill="#0E4678"/>
</svg>
